<mxfile host="app.diagrams.net" agent="Mozilla/5.0 (Macintosh; Intel Mac OS X 10_15_7) AppleWebKit/537.36 (KHTML, like Gecko) Chrome/128.0.0.0 Safari/537.36" version="24.7.10">
  <diagram name="페이지-1" id="NmFUBWDk919KxcUNLL5S">
    <mxGraphModel dx="1694" dy="924" grid="1" gridSize="10" guides="1" tooltips="1" connect="1" arrows="1" fold="1" page="1" pageScale="1" pageWidth="827" pageHeight="1169" math="0" shadow="0">
      <root>
        <mxCell id="0" />
        <mxCell id="1" parent="0" />
        <mxCell id="Dk58wKyjrQa3zwh0wSnQ-1" value="IAM" style="swimlane;whiteSpace=wrap;html=1;sketch=1;curveFitting=1;jiggle=2;" vertex="1" parent="1">
          <mxGeometry x="40" y="40" width="520" height="280" as="geometry" />
        </mxCell>
        <mxCell id="Dk58wKyjrQa3zwh0wSnQ-2" style="edgeStyle=orthogonalEdgeStyle;rounded=0;orthogonalLoop=1;jettySize=auto;html=1;sketch=1;curveFitting=1;jiggle=2;" edge="1" parent="Dk58wKyjrQa3zwh0wSnQ-1" source="Dk58wKyjrQa3zwh0wSnQ-3" target="Dk58wKyjrQa3zwh0wSnQ-7">
          <mxGeometry relative="1" as="geometry" />
        </mxCell>
        <mxCell id="Dk58wKyjrQa3zwh0wSnQ-3" value="User" style="shape=umlActor;verticalLabelPosition=bottom;verticalAlign=top;html=1;outlineConnect=0;sketch=1;curveFitting=1;jiggle=2;" vertex="1" parent="Dk58wKyjrQa3zwh0wSnQ-1">
          <mxGeometry x="40" y="120" width="30" height="60" as="geometry" />
        </mxCell>
        <mxCell id="Dk58wKyjrQa3zwh0wSnQ-4" style="edgeStyle=elbowEdgeStyle;rounded=0;orthogonalLoop=1;jettySize=auto;html=1;sketch=1;curveFitting=1;jiggle=2;" edge="1" parent="Dk58wKyjrQa3zwh0wSnQ-1" source="Dk58wKyjrQa3zwh0wSnQ-7" target="Dk58wKyjrQa3zwh0wSnQ-8">
          <mxGeometry relative="1" as="geometry" />
        </mxCell>
        <mxCell id="Dk58wKyjrQa3zwh0wSnQ-5" style="edgeStyle=orthogonalEdgeStyle;rounded=0;orthogonalLoop=1;jettySize=auto;html=1;sketch=1;curveFitting=1;jiggle=2;" edge="1" parent="Dk58wKyjrQa3zwh0wSnQ-1" source="Dk58wKyjrQa3zwh0wSnQ-7" target="Dk58wKyjrQa3zwh0wSnQ-9">
          <mxGeometry relative="1" as="geometry" />
        </mxCell>
        <mxCell id="Dk58wKyjrQa3zwh0wSnQ-6" style="edgeStyle=elbowEdgeStyle;rounded=0;orthogonalLoop=1;jettySize=auto;html=1;sketch=1;curveFitting=1;jiggle=2;" edge="1" parent="Dk58wKyjrQa3zwh0wSnQ-1" source="Dk58wKyjrQa3zwh0wSnQ-7" target="Dk58wKyjrQa3zwh0wSnQ-10">
          <mxGeometry relative="1" as="geometry" />
        </mxCell>
        <mxCell id="Dk58wKyjrQa3zwh0wSnQ-7" value="Global IAM&lt;div&gt;(Keystone)&lt;/div&gt;" style="rounded=0;whiteSpace=wrap;html=1;sketch=1;curveFitting=1;jiggle=2;" vertex="1" parent="Dk58wKyjrQa3zwh0wSnQ-1">
          <mxGeometry x="160" y="120" width="120" height="60" as="geometry" />
        </mxCell>
        <mxCell id="Dk58wKyjrQa3zwh0wSnQ-8" value="Region IAM&lt;div&gt;(Keystone)&lt;/div&gt;" style="rounded=0;whiteSpace=wrap;html=1;sketch=1;curveFitting=1;jiggle=2;" vertex="1" parent="Dk58wKyjrQa3zwh0wSnQ-1">
          <mxGeometry x="360" y="40" width="120" height="60" as="geometry" />
        </mxCell>
        <mxCell id="Dk58wKyjrQa3zwh0wSnQ-9" value="Region IAM&lt;div&gt;(Keystone)&lt;/div&gt;" style="rounded=0;whiteSpace=wrap;html=1;sketch=1;curveFitting=1;jiggle=2;" vertex="1" parent="Dk58wKyjrQa3zwh0wSnQ-1">
          <mxGeometry x="360" y="120" width="120" height="60" as="geometry" />
        </mxCell>
        <mxCell id="Dk58wKyjrQa3zwh0wSnQ-10" value="Region IAM&lt;div&gt;(Keystone)&lt;/div&gt;" style="rounded=0;whiteSpace=wrap;html=1;sketch=1;curveFitting=1;jiggle=2;" vertex="1" parent="Dk58wKyjrQa3zwh0wSnQ-1">
          <mxGeometry x="360" y="200" width="120" height="60" as="geometry" />
        </mxCell>
        <mxCell id="Dk58wKyjrQa3zwh0wSnQ-11" value="" style="shape=table;startSize=0;container=1;collapsible=0;childLayout=tableLayout;fontSize=11;fillColor=none;strokeColor=none;sketch=1;jiggle=2;curveFitting=1;align=center;verticalAlign=top;fontFamily=Helvetica;fontColor=default;" vertex="1" parent="1">
          <mxGeometry x="580" y="40" width="150" height="40" as="geometry" />
        </mxCell>
        <mxCell id="Dk58wKyjrQa3zwh0wSnQ-12" value="" style="shape=tableRow;horizontal=0;startSize=0;swimlaneHead=0;swimlaneBody=0;strokeColor=inherit;top=0;left=0;bottom=0;right=0;collapsible=0;dropTarget=0;fillColor=none;points=[[0,0.5],[1,0.5]];portConstraint=eastwest;fontSize=16;sketch=1;jiggle=2;curveFitting=1;align=center;verticalAlign=top;fontFamily=Helvetica;fontColor=default;" vertex="1" parent="Dk58wKyjrQa3zwh0wSnQ-11">
          <mxGeometry width="150" height="15" as="geometry" />
        </mxCell>
        <mxCell id="Dk58wKyjrQa3zwh0wSnQ-13" value="Global IAM = IdP&lt;div&gt;&lt;br&gt;&lt;/div&gt;" style="shape=partialRectangle;html=1;whiteSpace=wrap;connectable=0;strokeColor=inherit;overflow=hidden;fillColor=none;top=0;left=0;bottom=0;right=0;pointerEvents=1;fontSize=12;align=left;spacingLeft=5;sketch=1;jiggle=2;curveFitting=1;verticalAlign=top;fontFamily=Helvetica;fontColor=default;" vertex="1" parent="Dk58wKyjrQa3zwh0wSnQ-12">
          <mxGeometry width="150" height="15" as="geometry">
            <mxRectangle width="150" height="15" as="alternateBounds" />
          </mxGeometry>
        </mxCell>
        <mxCell id="Dk58wKyjrQa3zwh0wSnQ-14" value="" style="shape=tableRow;horizontal=0;startSize=0;swimlaneHead=0;swimlaneBody=0;strokeColor=inherit;top=0;left=0;bottom=0;right=0;collapsible=0;dropTarget=0;fillColor=none;points=[[0,0.5],[1,0.5]];portConstraint=eastwest;fontSize=16;sketch=1;jiggle=2;curveFitting=1;align=center;verticalAlign=top;fontFamily=Helvetica;fontColor=default;" vertex="1" parent="Dk58wKyjrQa3zwh0wSnQ-11">
          <mxGeometry y="15" width="150" height="25" as="geometry" />
        </mxCell>
        <mxCell id="Dk58wKyjrQa3zwh0wSnQ-15" value="Region IAM = SP" style="shape=partialRectangle;html=1;whiteSpace=wrap;connectable=0;strokeColor=inherit;overflow=hidden;fillColor=none;top=0;left=0;bottom=0;right=0;pointerEvents=1;fontSize=12;align=left;spacingLeft=5;sketch=1;jiggle=2;curveFitting=1;verticalAlign=top;fontFamily=Helvetica;fontColor=default;" vertex="1" parent="Dk58wKyjrQa3zwh0wSnQ-14">
          <mxGeometry width="150" height="25" as="geometry">
            <mxRectangle width="150" height="25" as="alternateBounds" />
          </mxGeometry>
        </mxCell>
        <mxCell id="Dk58wKyjrQa3zwh0wSnQ-16" value="" style="group" vertex="1" connectable="0" parent="1">
          <mxGeometry x="40" y="360" width="700" height="520" as="geometry" />
        </mxCell>
        <mxCell id="Dk58wKyjrQa3zwh0wSnQ-17" style="edgeStyle=none;curved=0;rounded=0;orthogonalLoop=1;jettySize=auto;html=1;fontFamily=Helvetica;fontSource=https%3A%2F%2Ffonts.googleapis.com%2Fcss%3Ffamily%3DArchitects%2BDaughter;fontSize=12;fontColor=default;fontStyle=1;startSize=14;endArrow=classicThin;endSize=14;sourcePerimeterSpacing=8;targetPerimeterSpacing=8;startArrow=oval;startFill=1;endFill=1;" edge="1" parent="Dk58wKyjrQa3zwh0wSnQ-16" target="Dk58wKyjrQa3zwh0wSnQ-21">
          <mxGeometry relative="1" as="geometry">
            <mxPoint x="83" y="80" as="sourcePoint" />
            <mxPoint x="337" y="80" as="targetPoint" />
          </mxGeometry>
        </mxCell>
        <mxCell id="Dk58wKyjrQa3zwh0wSnQ-18" value="토큰 요청" style="edgeLabel;html=1;align=center;verticalAlign=middle;resizable=0;points=[];fontSize=12;sketch=1;jiggle=2;curveFitting=1;strokeColor=default;fontFamily=Helvetica;fontColor=default;fillColor=default;" vertex="1" connectable="0" parent="Dk58wKyjrQa3zwh0wSnQ-17">
          <mxGeometry x="-0.0236" y="2" relative="1" as="geometry">
            <mxPoint as="offset" />
          </mxGeometry>
        </mxCell>
        <mxCell id="Dk58wKyjrQa3zwh0wSnQ-19" value="" style="html=1;points=[[0,0,0,0,5],[0,1,0,0,-5],[1,0,0,0,5],[1,1,0,0,-5]];perimeter=orthogonalPerimeter;outlineConnect=0;targetShapes=umlLifeline;portConstraint=eastwest;newEdgeStyle={&quot;curved&quot;:0,&quot;rounded&quot;:0};sketch=1;jiggle=2;curveFitting=1;strokeColor=default;align=center;verticalAlign=top;fontFamily=Helvetica;fontSize=12;fontColor=default;fillColor=default;" vertex="1" parent="Dk58wKyjrQa3zwh0wSnQ-16">
          <mxGeometry x="65" y="30" width="10" height="480" as="geometry" />
        </mxCell>
        <mxCell id="Dk58wKyjrQa3zwh0wSnQ-20" value="User" style="fontStyle=1;whiteSpace=wrap;html=1;sketch=1;jiggle=2;curveFitting=1;strokeColor=default;align=center;verticalAlign=top;fontFamily=Helvetica;fontSize=12;fontColor=default;fillColor=default;" vertex="1" parent="Dk58wKyjrQa3zwh0wSnQ-16">
          <mxGeometry width="140" height="30" as="geometry" />
        </mxCell>
        <mxCell id="Dk58wKyjrQa3zwh0wSnQ-21" value="" style="html=1;points=[[0,0,0,0,5],[0,1,0,0,-5],[1,0,0,0,5],[1,1,0,0,-5]];perimeter=orthogonalPerimeter;outlineConnect=0;targetShapes=umlLifeline;portConstraint=eastwest;newEdgeStyle={&quot;curved&quot;:0,&quot;rounded&quot;:0};sketch=1;jiggle=2;curveFitting=1;strokeColor=default;align=center;verticalAlign=top;fontFamily=Helvetica;fontSize=12;fontColor=default;fillColor=default;" vertex="1" parent="Dk58wKyjrQa3zwh0wSnQ-16">
          <mxGeometry x="345" y="30" width="10" height="490" as="geometry" />
        </mxCell>
        <mxCell id="Dk58wKyjrQa3zwh0wSnQ-22" value="IdP" style="fontStyle=1;whiteSpace=wrap;html=1;sketch=1;jiggle=2;curveFitting=1;strokeColor=default;align=center;verticalAlign=top;fontFamily=Helvetica;fontSize=12;fontColor=default;fillColor=default;" vertex="1" parent="Dk58wKyjrQa3zwh0wSnQ-16">
          <mxGeometry x="280" width="140" height="30" as="geometry" />
        </mxCell>
        <mxCell id="Dk58wKyjrQa3zwh0wSnQ-23" value="" style="html=1;points=[[0,0,0,0,5],[0,1,0,0,-5],[1,0,0,0,5],[1,1,0,0,-5]];perimeter=orthogonalPerimeter;outlineConnect=0;targetShapes=umlLifeline;portConstraint=eastwest;newEdgeStyle={&quot;curved&quot;:0,&quot;rounded&quot;:0};sketch=1;jiggle=2;curveFitting=1;strokeColor=default;align=center;verticalAlign=top;fontFamily=Helvetica;fontSize=12;fontColor=default;fillColor=default;" vertex="1" parent="Dk58wKyjrQa3zwh0wSnQ-16">
          <mxGeometry x="625" y="30" width="10" height="490" as="geometry" />
        </mxCell>
        <mxCell id="Dk58wKyjrQa3zwh0wSnQ-24" value="SP" style="fontStyle=1;whiteSpace=wrap;html=1;sketch=1;jiggle=2;curveFitting=1;strokeColor=default;align=center;verticalAlign=top;fontFamily=Helvetica;fontSize=12;fontColor=default;fillColor=default;" vertex="1" parent="Dk58wKyjrQa3zwh0wSnQ-16">
          <mxGeometry x="560" width="140" height="30" as="geometry" />
        </mxCell>
        <mxCell id="Dk58wKyjrQa3zwh0wSnQ-25" value="" style="endArrow=block;dashed=1;endFill=0;endSize=12;html=1;rounded=0;fontFamily=Helvetica;fontSource=https%3A%2F%2Ffonts.googleapis.com%2Fcss%3Ffamily%3DArchitects%2BDaughter;fontSize=12;fontColor=default;fontStyle=1;sourcePerimeterSpacing=8;targetPerimeterSpacing=8;curved=1;" edge="1" parent="Dk58wKyjrQa3zwh0wSnQ-16" source="Dk58wKyjrQa3zwh0wSnQ-21" target="Dk58wKyjrQa3zwh0wSnQ-19">
          <mxGeometry width="160" relative="1" as="geometry">
            <mxPoint x="290" y="-10" as="sourcePoint" />
            <mxPoint x="450" y="-10" as="targetPoint" />
            <Array as="points">
              <mxPoint x="190" y="120" />
            </Array>
          </mxGeometry>
        </mxCell>
        <mxCell id="Dk58wKyjrQa3zwh0wSnQ-26" value="Response X-Subject Token" style="edgeLabel;html=1;align=center;verticalAlign=middle;resizable=0;points=[];fontSize=12;sketch=1;jiggle=2;curveFitting=1;strokeColor=default;fontFamily=Helvetica;fontColor=default;fillColor=default;" vertex="1" connectable="0" parent="Dk58wKyjrQa3zwh0wSnQ-25">
          <mxGeometry x="-0.0079" y="3" relative="1" as="geometry">
            <mxPoint as="offset" />
          </mxGeometry>
        </mxCell>
        <mxCell id="Dk58wKyjrQa3zwh0wSnQ-27" style="edgeStyle=none;curved=0;rounded=0;orthogonalLoop=1;jettySize=auto;html=1;fontFamily=Helvetica;fontSource=https%3A%2F%2Ffonts.googleapis.com%2Fcss%3Ffamily%3DArchitects%2BDaughter;fontSize=12;fontColor=default;fontStyle=1;startSize=14;endArrow=classicThin;endSize=14;sourcePerimeterSpacing=8;targetPerimeterSpacing=8;startArrow=oval;startFill=1;endFill=1;" edge="1" parent="Dk58wKyjrQa3zwh0wSnQ-16">
          <mxGeometry relative="1" as="geometry">
            <mxPoint x="80" y="160" as="sourcePoint" />
            <mxPoint x="334" y="160" as="targetPoint" />
          </mxGeometry>
        </mxCell>
        <mxCell id="Dk58wKyjrQa3zwh0wSnQ-28" value="ECP SAML 2.0 Assertion 요청" style="edgeLabel;html=1;align=center;verticalAlign=middle;resizable=0;points=[];fontSize=12;sketch=1;jiggle=2;curveFitting=1;strokeColor=default;fontFamily=Helvetica;fontColor=default;fillColor=default;" vertex="1" connectable="0" parent="Dk58wKyjrQa3zwh0wSnQ-27">
          <mxGeometry x="-0.0236" y="2" relative="1" as="geometry">
            <mxPoint as="offset" />
          </mxGeometry>
        </mxCell>
        <mxCell id="Dk58wKyjrQa3zwh0wSnQ-29" value="" style="endArrow=block;dashed=1;endFill=0;endSize=12;html=1;rounded=0;fontFamily=Helvetica;fontSource=https%3A%2F%2Ffonts.googleapis.com%2Fcss%3Ffamily%3DArchitects%2BDaughter;fontSize=12;fontColor=default;fontStyle=1;sourcePerimeterSpacing=8;targetPerimeterSpacing=8;curved=1;" edge="1" parent="Dk58wKyjrQa3zwh0wSnQ-16">
          <mxGeometry width="160" relative="1" as="geometry">
            <mxPoint x="334" y="200" as="sourcePoint" />
            <mxPoint x="80" y="200" as="targetPoint" />
            <Array as="points">
              <mxPoint x="187" y="200" />
            </Array>
          </mxGeometry>
        </mxCell>
        <mxCell id="Dk58wKyjrQa3zwh0wSnQ-30" value="Response SOAP" style="edgeLabel;html=1;align=center;verticalAlign=middle;resizable=0;points=[];fontSize=12;sketch=1;jiggle=2;curveFitting=1;strokeColor=default;fontFamily=Helvetica;fontColor=default;fillColor=default;" vertex="1" connectable="0" parent="Dk58wKyjrQa3zwh0wSnQ-29">
          <mxGeometry x="-0.0079" y="3" relative="1" as="geometry">
            <mxPoint as="offset" />
          </mxGeometry>
        </mxCell>
        <mxCell id="Dk58wKyjrQa3zwh0wSnQ-31" style="edgeStyle=none;curved=0;rounded=0;orthogonalLoop=1;jettySize=auto;html=1;fontFamily=Helvetica;fontSource=https%3A%2F%2Ffonts.googleapis.com%2Fcss%3Ffamily%3DArchitects%2BDaughter;fontSize=12;fontColor=default;fontStyle=1;startSize=14;endArrow=classicThin;endSize=14;sourcePerimeterSpacing=8;targetPerimeterSpacing=8;startArrow=oval;startFill=1;endFill=1;" edge="1" parent="Dk58wKyjrQa3zwh0wSnQ-16" target="Dk58wKyjrQa3zwh0wSnQ-23">
          <mxGeometry relative="1" as="geometry">
            <mxPoint x="80" y="280" as="sourcePoint" />
            <mxPoint x="334" y="280" as="targetPoint" />
          </mxGeometry>
        </mxCell>
        <mxCell id="Dk58wKyjrQa3zwh0wSnQ-32" value="PAOS-url" style="edgeLabel;html=1;align=center;verticalAlign=middle;resizable=0;points=[];fontSize=12;sketch=1;jiggle=2;curveFitting=1;strokeColor=default;fontFamily=Helvetica;fontColor=default;fillColor=default;" vertex="1" connectable="0" parent="Dk58wKyjrQa3zwh0wSnQ-31">
          <mxGeometry x="-0.0236" y="2" relative="1" as="geometry">
            <mxPoint as="offset" />
          </mxGeometry>
        </mxCell>
        <mxCell id="Dk58wKyjrQa3zwh0wSnQ-33" value="" style="endArrow=block;dashed=1;endFill=0;endSize=12;html=1;rounded=0;fontFamily=Helvetica;fontSource=https%3A%2F%2Ffonts.googleapis.com%2Fcss%3Ffamily%3DArchitects%2BDaughter;fontSize=12;fontColor=default;fontStyle=1;sourcePerimeterSpacing=8;targetPerimeterSpacing=8;curved=1;" edge="1" parent="Dk58wKyjrQa3zwh0wSnQ-16" source="Dk58wKyjrQa3zwh0wSnQ-23">
          <mxGeometry width="160" relative="1" as="geometry">
            <mxPoint x="334" y="320" as="sourcePoint" />
            <mxPoint x="80" y="320" as="targetPoint" />
            <Array as="points">
              <mxPoint x="187" y="320" />
            </Array>
          </mxGeometry>
        </mxCell>
        <mxCell id="Dk58wKyjrQa3zwh0wSnQ-34" value="Response" style="edgeLabel;html=1;align=center;verticalAlign=middle;resizable=0;points=[];fontSize=12;sketch=1;jiggle=2;curveFitting=1;strokeColor=default;fontFamily=Helvetica;fontColor=default;fillColor=default;" vertex="1" connectable="0" parent="Dk58wKyjrQa3zwh0wSnQ-33">
          <mxGeometry x="-0.0079" y="3" relative="1" as="geometry">
            <mxPoint as="offset" />
          </mxGeometry>
        </mxCell>
        <mxCell id="Dk58wKyjrQa3zwh0wSnQ-35" style="edgeStyle=none;curved=0;rounded=0;orthogonalLoop=1;jettySize=auto;html=1;fontFamily=Helvetica;fontSource=https%3A%2F%2Ffonts.googleapis.com%2Fcss%3Ffamily%3DArchitects%2BDaughter;fontSize=12;fontColor=default;fontStyle=1;startSize=14;endArrow=classicThin;endSize=14;sourcePerimeterSpacing=8;targetPerimeterSpacing=8;startArrow=oval;startFill=1;endFill=1;" edge="1" parent="Dk58wKyjrQa3zwh0wSnQ-16">
          <mxGeometry relative="1" as="geometry">
            <mxPoint x="81.5" y="359" as="sourcePoint" />
            <mxPoint x="618.5" y="359" as="targetPoint" />
          </mxGeometry>
        </mxCell>
        <mxCell id="Dk58wKyjrQa3zwh0wSnQ-36" value="Unscopend 토큰 요청" style="edgeLabel;html=1;align=center;verticalAlign=middle;resizable=0;points=[];fontSize=12;sketch=1;jiggle=2;curveFitting=1;strokeColor=default;fontFamily=Helvetica;fontColor=default;fillColor=default;" vertex="1" connectable="0" parent="Dk58wKyjrQa3zwh0wSnQ-35">
          <mxGeometry x="-0.0236" y="2" relative="1" as="geometry">
            <mxPoint as="offset" />
          </mxGeometry>
        </mxCell>
        <mxCell id="Dk58wKyjrQa3zwh0wSnQ-37" value="" style="endArrow=block;dashed=1;endFill=0;endSize=12;html=1;rounded=0;fontFamily=Helvetica;fontSource=https%3A%2F%2Ffonts.googleapis.com%2Fcss%3Ffamily%3DArchitects%2BDaughter;fontSize=12;fontColor=default;fontStyle=1;sourcePerimeterSpacing=8;targetPerimeterSpacing=8;curved=1;" edge="1" parent="Dk58wKyjrQa3zwh0wSnQ-16">
          <mxGeometry width="160" relative="1" as="geometry">
            <mxPoint x="618.5" y="399" as="sourcePoint" />
            <mxPoint x="81.5" y="399" as="targetPoint" />
            <Array as="points">
              <mxPoint x="188.5" y="399" />
            </Array>
          </mxGeometry>
        </mxCell>
        <mxCell id="Dk58wKyjrQa3zwh0wSnQ-38" value="Response Unscoped Token" style="edgeLabel;html=1;align=center;verticalAlign=middle;resizable=0;points=[];fontSize=12;sketch=1;jiggle=2;curveFitting=1;strokeColor=default;fontFamily=Helvetica;fontColor=default;fillColor=default;" vertex="1" connectable="0" parent="Dk58wKyjrQa3zwh0wSnQ-37">
          <mxGeometry x="-0.0079" y="3" relative="1" as="geometry">
            <mxPoint as="offset" />
          </mxGeometry>
        </mxCell>
        <mxCell id="Dk58wKyjrQa3zwh0wSnQ-39" style="edgeStyle=none;curved=0;rounded=0;orthogonalLoop=1;jettySize=auto;html=1;fontFamily=Helvetica;fontSource=https%3A%2F%2Ffonts.googleapis.com%2Fcss%3Ffamily%3DArchitects%2BDaughter;fontSize=12;fontColor=default;fontStyle=1;startSize=14;endArrow=classicThin;endSize=14;sourcePerimeterSpacing=8;targetPerimeterSpacing=8;startArrow=oval;startFill=1;endFill=1;" edge="1" parent="Dk58wKyjrQa3zwh0wSnQ-16">
          <mxGeometry relative="1" as="geometry">
            <mxPoint x="81.5" y="440" as="sourcePoint" />
            <mxPoint x="618.5" y="440" as="targetPoint" />
          </mxGeometry>
        </mxCell>
        <mxCell id="Dk58wKyjrQa3zwh0wSnQ-40" value="토큰 Scoped 요청" style="edgeLabel;html=1;align=center;verticalAlign=middle;resizable=0;points=[];fontSize=12;sketch=1;jiggle=2;curveFitting=1;strokeColor=default;fontFamily=Helvetica;fontColor=default;fillColor=default;" vertex="1" connectable="0" parent="Dk58wKyjrQa3zwh0wSnQ-39">
          <mxGeometry x="-0.0236" y="2" relative="1" as="geometry">
            <mxPoint as="offset" />
          </mxGeometry>
        </mxCell>
        <mxCell id="Dk58wKyjrQa3zwh0wSnQ-41" value="" style="endArrow=block;dashed=1;endFill=0;endSize=12;html=1;rounded=0;fontFamily=Helvetica;fontSource=https%3A%2F%2Ffonts.googleapis.com%2Fcss%3Ffamily%3DArchitects%2BDaughter;fontSize=12;fontColor=default;fontStyle=1;sourcePerimeterSpacing=8;targetPerimeterSpacing=8;curved=1;" edge="1" parent="Dk58wKyjrQa3zwh0wSnQ-16">
          <mxGeometry width="160" relative="1" as="geometry">
            <mxPoint x="618.5" y="480" as="sourcePoint" />
            <mxPoint x="81.5" y="480" as="targetPoint" />
            <Array as="points">
              <mxPoint x="188.5" y="480" />
            </Array>
          </mxGeometry>
        </mxCell>
        <mxCell id="Dk58wKyjrQa3zwh0wSnQ-42" value="Response Scoped Token" style="edgeLabel;html=1;align=center;verticalAlign=middle;resizable=0;points=[];fontSize=12;sketch=1;jiggle=2;curveFitting=1;strokeColor=default;fontFamily=Helvetica;fontColor=default;fillColor=default;" vertex="1" connectable="0" parent="Dk58wKyjrQa3zwh0wSnQ-41">
          <mxGeometry x="-0.0079" y="3" relative="1" as="geometry">
            <mxPoint as="offset" />
          </mxGeometry>
        </mxCell>
        <UserObject label="&lt;span style=&quot;color: rgb(0, 0, 0); font-family: Helvetica; font-size: 12px; font-style: normal; font-variant-ligatures: normal; font-variant-caps: normal; font-weight: 400; letter-spacing: normal; orphans: 2; text-align: center; text-indent: 0px; text-transform: none; widows: 2; word-spacing: 0px; -webkit-text-stroke-width: 0px; white-space: nowrap; background-color: rgb(251, 251, 251); text-decoration-thickness: initial; text-decoration-style: initial; text-decoration-color: initial; display: inline !important; float: none;&quot;&gt;https://docs.openstack.org/keystone/latest/admin/federation/introduction.html#keystone-to-keystone&lt;/span&gt;" link="&lt;span style=&quot;color: rgb(0, 0, 0); font-family: Helvetica; font-size: 12px; font-style: normal; font-variant-ligatures: normal; font-variant-caps: normal; font-weight: 400; letter-spacing: normal; orphans: 2; text-align: center; text-indent: 0px; text-transform: none; widows: 2; word-spacing: 0px; -webkit-text-stroke-width: 0px; white-space: nowrap; background-color: rgb(251, 251, 251); text-decoration-thickness: initial; text-decoration-style: initial; text-decoration-color: initial; display: inline !important; float: none;&quot;&gt;https://docs.openstack.org/keystone/latest/admin/federation/introduction.html#keystone-to-keystone&lt;/span&gt;" id="Dk58wKyjrQa3zwh0wSnQ-43">
          <mxCell style="text;whiteSpace=wrap;html=1;fontFamily=Helvetica;fontSize=12;fontColor=default;" vertex="1" parent="1">
            <mxGeometry x="40" y="880" width="560" height="40" as="geometry" />
          </mxCell>
        </UserObject>
      </root>
    </mxGraphModel>
  </diagram>
</mxfile>
